<svg width="20" height="10" viewBox="0 0 20 10" fill="none" xmlns="http://www.w3.org/2000/svg">
    <path fill-rule="evenodd" clip-rule="evenodd" d="M11.5801 2.91199C11.2711 2.33777 10.97 1.86027 10.6566 1.46942C10.7629 1.36038 10.8532 1.26918 10.9074 1.21754C11.8067 0.36108 12.693 0 14.1673 0C16.8473 0 19.1673 2.16531 19.1673 5C19.1673 7.83469 16.8473 10 14.1673 10C11.7902 10 10.7804 8.76348 9.24072 5.34197C7.9679 2.51348 7.27633 1.66667 5.83398 1.66667C3.95823 1.66667 2.50065 3.22339 2.50065 5C2.50065 6.78426 3.94645 8.33333 5.83398 8.33333C6.70341 8.33333 7.74255 7.98745 8.65009 7.49776C8.97252 8.05228 9.29176 8.50243 9.6313 8.85993C8.46252 9.52574 7.09321 10 5.83398 10C2.9993 10 0.833984 7.68002 0.833984 5C0.833984 2.32653 3.01235 0 5.83398 0C8.21108 0 9.22091 1.23652 10.7606 4.65803C12.0334 7.48652 12.725 8.33333 14.1673 8.33333C15.9516 8.33333 17.5007 6.88753 17.5007 5C17.5007 3.11247 15.9516 1.66667 14.1673 1.66667C13.1248 1.66667 12.6489 1.86054 12.0568 2.42444C11.9786 2.49898 11.7838 2.7003 11.5801 2.91199Z" fill="#25E57E"/>
</svg>
