<svg width="148" height="53" viewBox="0 0 148 53" fill="none" xmlns="http://www.w3.org/2000/svg">
    <path d="M62.8743 25.824C64.6269 27.3867 65.5038 29.7433 65.5038 32.8947V44.9878H59.7738V42.3486C58.622 44.3181 56.4771 45.3028 53.3373 45.3028C51.7148 45.3028 50.3086 45.027 49.1183 44.4756C47.9276 43.9243 47.0186 43.1629 46.3907 42.1911C45.7628 41.2198 45.4487 40.1168 45.4487 38.8822C45.4487 36.9126 46.1878 35.3633 47.6663 34.234C49.1441 33.1052 51.4273 32.54 54.5148 32.54H59.3814C59.3814 31.2006 58.9754 30.1703 58.1646 29.4479C57.3532 28.726 56.1367 28.3648 54.5148 28.3648C53.3896 28.3648 52.2839 28.5418 51.1985 28.8965C50.1126 29.2509 49.1902 29.7302 48.4316 30.3343L46.2338 26.0405C47.3848 25.227 48.7652 24.5965 50.3742 24.1496C51.9834 23.7032 53.6378 23.4799 55.3389 23.4799C58.6093 23.4802 61.1209 24.2619 62.8743 25.824ZM57.6546 40.4383C58.4651 39.9525 59.041 39.2369 59.3814 38.2914V36.1247H55.182C52.6701 36.1247 51.4143 36.9518 51.4143 38.6064C51.4143 39.3941 51.7216 40.0181 52.3365 40.4775C52.9511 40.9372 53.7947 41.1667 54.8679 41.1667C55.9142 41.167 56.8432 40.9244 57.6546 40.4383Z" fill="#F9F9FE"/>
    <path d="M90.209 25.8432C91.8182 27.4189 92.6225 29.7564 92.6225 32.8548V44.9871H86.5001V33.8C86.5001 32.1196 86.1331 30.8654 85.4011 30.038C84.6681 29.2108 83.6085 28.7971 82.2223 28.7971C80.6779 28.7971 79.4489 29.2766 78.5332 30.2349C77.6169 31.1937 77.1597 32.6181 77.1597 34.5088V44.9868H71.0373V23.7939H76.8852V26.2759C77.6955 25.3835 78.7034 24.694 79.9069 24.2076C81.1099 23.7221 82.4315 23.4789 83.8708 23.4789C86.4862 23.4795 88.5998 24.2672 90.209 25.8432Z" fill="#F9F9FE"/>
    <path d="M120.173 23.7945V41.4418C120.173 45.3282 119.165 48.2171 117.151 50.108C115.136 51.9987 112.193 52.9442 108.321 52.9442C106.28 52.9442 104.343 52.6942 102.512 52.1956C100.68 51.6965 99.1627 50.9746 97.9595 50.0291L100.393 45.6173C101.282 46.352 102.407 46.937 103.768 47.3701C105.128 47.8034 106.489 48.0201 107.85 48.0201C109.969 48.0201 111.532 47.5406 112.54 46.5823C113.547 45.6236 114.051 44.1735 114.051 42.2295V41.3235C112.454 43.0833 110.23 43.9627 107.379 43.9627C105.442 43.9627 103.67 43.5365 102.061 42.6827C100.452 41.8294 99.176 40.628 98.2343 39.0781C97.2923 37.5291 96.8215 35.7434 96.8215 33.7211C96.8215 31.6991 97.2923 29.9137 98.2343 28.3641C99.1763 26.8148 100.452 25.6133 102.061 24.7598C103.67 23.9065 105.442 23.4795 107.379 23.4795C110.44 23.4795 112.769 24.4908 114.364 26.5128V23.7945H120.173ZM112.579 37.4831C113.612 36.5252 114.129 35.2712 114.129 33.7214C114.129 32.1723 113.612 30.9184 112.579 29.9596C111.545 29.0014 110.217 28.5218 108.596 28.5218C106.973 28.5218 105.639 29.0014 104.592 29.9596C103.546 30.9184 103.023 32.1723 103.023 33.7214C103.023 35.2712 103.546 36.5252 104.592 37.4831C105.639 38.4422 106.973 38.9209 108.596 38.9209C110.217 38.9209 111.545 38.4422 112.579 37.4831Z" fill="#F9F9FE"/>
    <path d="M129.926 43.904C128.159 42.9721 126.779 41.6782 125.785 40.0239C124.79 38.3693 124.294 36.4923 124.294 34.3908C124.294 32.2901 124.79 30.4123 125.785 28.758C126.779 27.1034 128.16 25.8103 129.926 24.8776C131.692 23.9457 133.686 23.4792 135.911 23.4792C138.134 23.4792 140.123 23.9457 141.876 24.8776C143.629 25.8103 145.002 27.1034 145.997 28.758C146.991 30.4123 147.488 32.2901 147.488 34.3908C147.488 36.4923 146.991 38.3693 145.997 40.0239C145.002 41.6782 143.629 42.9721 141.876 43.904C140.123 44.8364 138.134 45.3024 135.911 45.3024C133.686 45.3024 131.692 44.8364 129.926 43.904ZM139.777 38.6647C140.783 37.6012 141.287 36.177 141.287 34.3908C141.287 32.6054 140.783 31.1804 139.777 30.1169C138.769 29.0533 137.48 28.5216 135.911 28.5216C134.341 28.5216 133.046 29.0533 132.025 30.1169C131.005 31.1804 130.495 32.6051 130.495 34.3908C130.495 36.1768 131.005 37.6012 132.025 38.6647C133.046 39.7283 134.341 40.26 135.911 40.26C137.48 40.2603 138.769 39.7283 139.777 38.6647Z" fill="#F9F9FE"/>
    <path d="M48.9991 0.164185H6.5982C3.4527 0.164185 0.902588 2.81537 0.902588 6.08563V44.411C0.902588 47.6812 3.4527 50.3324 6.5982 50.3324H45.5824C41.716 48.1232 40.5122 43.772 40.1358 40.3982C39.8838 38.1376 39.9475 35.9986 39.9475 35.9986L39.9767 24.3023C39.9504 24.3322 39.9239 24.3627 39.8979 24.3923C36.1689 28.6129 32.5985 34.3861 32.5985 34.3861C29.773 30.1691 27.0189 26.8504 24.4265 24.2351V41.354C24.4265 41.354 22.8398 42.5086 17.0081 42.1504C12.2507 41.858 10.2244 36.4169 10.4627 28.5332C10.6835 21.2156 11.2223 16.0234 8.15834 14.6463C7.34019 14.5361 6.8925 14.5576 6.8925 14.5576C22.4829 4.04617 32.7177 20.769 32.7177 20.769C49.6167 -0.611831 54.6945 18.2995 54.6947 18.3003V6.08563C54.695 2.81537 52.1449 0.164185 48.9991 0.164185Z" fill="#25E57E"/>
</svg>
