<svg width="15" height="15" viewBox="0 0 15 15" fill="none" xmlns="http://www.w3.org/2000/svg">
    <path fill-rule="evenodd" clip-rule="evenodd" d="M0 7.5C0 11.6421 3.35786 15 7.5 15C11.6421 15 15 11.6421 15 7.5C15 3.35786 11.6421 0 7.5 0C3.35786 0 0 3.35786 0 7.5ZM13.6367 7.49999C13.6367 10.889 10.8893 13.6364 7.5003 13.6364C4.11128 13.6364 1.36393 10.889 1.36393 7.49999C1.36393 4.11097 4.11128 1.36363 7.5003 1.36363C10.8893 1.36363 13.6367 4.11097 13.6367 7.49999ZM7.50008 10.9079C7.87676 10.9079 8.18212 10.6026 8.18212 10.2261C8.18212 9.84953 7.87676 9.54427 7.50008 9.54427C7.12339 9.54427 6.81803 9.84953 6.81803 10.2261C6.81803 10.6026 7.12339 10.9079 7.50008 10.9079ZM6.8184 8.86366H8.18204C8.18204 8.31933 8.26755 8.21957 8.82787 7.93941C9.80164 7.45252 10.2275 6.9557 10.2275 5.79548C10.2275 4.30955 9.05773 3.40912 7.50022 3.40912C5.99399 3.40912 4.77295 4.63016 4.77295 6.13639H6.13659C6.13659 5.38328 6.74711 4.77276 7.50022 4.77276C8.37101 4.77276 8.86386 5.15212 8.86386 5.79548C8.86386 6.33981 8.77835 6.43958 8.21803 6.71974C7.24425 7.20662 6.8184 7.70345 6.8184 8.86366Z" fill="#F9F9FE"/>
</svg>
