<svg width="153" height="84" viewBox="0 0 153 84" fill="none" xmlns="http://www.w3.org/2000/svg">
    <g opacity="0.7">
        <path fill-rule="evenodd" clip-rule="evenodd" d="M14.0707 57.2311C14.0707 58.2275 13.2603 59.0322 12.2665 59.0322C11.2726 59.0322 10.4623 58.2275 10.4776 57.2311C10.4623 56.2347 11.2726 55.4253 12.2665 55.4253C13.2603 55.4253 14.0707 56.2347 14.0707 57.2311Z" fill="url(#paint0_linear)"/>
        <path fill-rule="evenodd" clip-rule="evenodd" d="M21.6087 57.2311C21.6087 58.4252 20.6455 59.394 19.4528 59.394C18.2602 59.394 17.2969 58.4252 17.2969 57.2311C17.2969 56.0369 18.2602 55.0666 19.4528 55.0666C20.6455 55.0666 21.6087 56.0369 21.6087 57.2311Z" fill="url(#paint1_linear)"/>
        <path fill-rule="evenodd" clip-rule="evenodd" d="M29.162 57.2311C29.162 58.6245 28.0459 59.7543 26.6545 59.7543C25.2631 59.7543 24.1316 58.6245 24.1316 57.2311C24.1316 55.8377 25.2631 54.7079 26.6545 54.7079C28.0306 54.7079 29.162 55.8377 29.162 57.2311Z" fill="url(#paint2_linear)"/>
        <path fill-rule="evenodd" clip-rule="evenodd" d="M6.51744 57.2311C6.51744 58.0282 5.87521 58.672 5.08013 58.672C4.28505 58.672 3.64288 58.0282 3.64288 57.2311C3.64288 56.4355 4.28505 55.7886 5.08013 55.7886C5.87521 55.7886 6.51744 56.4355 6.51744 57.2311Z" fill="url(#paint3_linear)"/>
        <path fill-rule="evenodd" clip-rule="evenodd" d="M14.0554 50.0202C14.0707 51.0197 13.2603 51.8229 12.2665 51.8229C11.2726 51.8229 10.4623 51.0197 10.4776 50.0202C10.4623 49.0269 11.2726 48.2191 12.2665 48.2191C13.2603 48.2191 14.0707 49.0269 14.0554 50.0202Z" fill="url(#paint4_linear)"/>
        <path fill-rule="evenodd" clip-rule="evenodd" d="M21.6087 50.0202C21.6087 51.2159 20.6455 52.1847 19.4528 52.1847C18.2602 52.1847 17.2969 51.2159 17.2969 50.0202C17.2969 48.8276 18.2602 47.8588 19.4528 47.8588C20.6455 47.8588 21.6087 48.8276 21.6087 50.0202Z" fill="url(#paint5_linear)"/>
        <path fill-rule="evenodd" clip-rule="evenodd" d="M29.162 50.0202C29.162 51.4167 28.0459 52.5449 26.6545 52.5449C25.2631 52.5449 24.1316 51.4167 24.1316 50.0202C24.1316 48.6283 25.2631 47.5001 26.6545 47.5001C28.0459 47.5001 29.162 48.6283 29.162 50.0202Z" fill="url(#paint6_linear)"/>
        <path fill-rule="evenodd" clip-rule="evenodd" d="M36.7153 50.0217C36.7153 51.6175 35.4309 52.9052 33.8407 52.9052C32.2506 52.9052 30.9662 51.6175 30.9662 50.0217C30.9662 48.429 32.2506 47.1368 33.8407 47.1368C35.4309 47.1368 36.7153 48.429 36.7153 50.0217Z" fill="url(#paint7_linear)"/>
        <path fill-rule="evenodd" clip-rule="evenodd" d="M6.51744 50.0202C6.51744 50.8189 5.87521 51.4627 5.08013 51.4627C4.28505 51.4627 3.64288 50.8189 3.64288 50.0202C3.64288 49.2231 4.28505 48.5777 5.08013 48.5777C5.87521 48.5777 6.51744 49.2231 6.51744 50.0202Z" fill="url(#paint8_linear)"/>
        <path fill-rule="evenodd" clip-rule="evenodd" d="M14.0707 42.8124C14.0707 43.8058 13.2604 44.6151 12.2665 44.6151C11.2727 44.6151 10.4623 43.8058 10.4623 42.8124C10.4623 41.8161 11.2727 41.0097 12.2665 41.0097C13.2604 41.0097 14.0707 41.8161 14.0707 42.8124Z" fill="url(#paint9_linear)"/>
        <path fill-rule="evenodd" clip-rule="evenodd" d="M21.6087 42.8124C21.6087 44.005 20.6455 44.9738 19.4528 44.9738C18.2602 44.9738 17.2969 44.005 17.2969 42.8124C17.2969 41.6198 18.2602 40.6479 19.4528 40.6479C20.6455 40.6479 21.6087 41.6198 21.6087 42.8124Z" fill="url(#paint10_linear)"/>
        <path fill-rule="evenodd" clip-rule="evenodd" d="M29.162 42.8125C29.162 44.2059 28.0459 45.3356 26.6545 45.3356C25.2631 45.3356 24.1316 44.2059 24.1316 42.8125C24.1316 41.4206 25.2631 40.2893 26.6545 40.2893C28.0306 40.2893 29.162 41.4206 29.162 42.8125Z" fill="url(#paint11_linear)"/>
        <path fill-rule="evenodd" clip-rule="evenodd" d="M36.7153 42.8124C36.7153 44.4051 35.4309 45.6959 33.8407 45.6959C32.2506 45.6959 30.9662 44.4051 30.9662 42.8124C30.9662 41.2198 32.2506 39.9275 33.8407 39.9275C35.4309 39.9275 36.7153 41.2198 36.7153 42.8124Z" fill="url(#paint12_linear)"/>
        <path fill-rule="evenodd" clip-rule="evenodd" d="M44.2685 42.8125C44.2685 44.606 42.816 46.0546 41.0271 46.0546C39.2381 46.0546 37.8008 44.606 37.8008 42.8125C37.8008 41.022 39.2381 39.5673 41.0271 39.5673C42.816 39.5673 44.2685 41.022 44.2685 42.8125Z" fill="url(#paint13_linear)"/>
        <path fill-rule="evenodd" clip-rule="evenodd" d="M6.51744 42.8125C6.51744 43.6096 5.87521 44.2534 5.08013 44.2534C4.28505 44.2534 3.64288 43.6096 3.64288 42.8125C3.64288 42.0169 4.28505 41.37 5.08013 41.37C5.87521 41.37 6.51744 42.0169 6.51744 42.8125Z" fill="url(#paint14_linear)"/>
        <path fill-rule="evenodd" clip-rule="evenodd" d="M14.0707 35.6016C14.0707 36.598 13.2603 37.4043 12.2665 37.4043C11.2726 37.4043 10.4623 36.598 10.4776 35.6016C10.4623 34.6083 11.2726 33.7989 12.2665 33.7989C13.2603 33.7989 14.0554 34.6083 14.0707 35.6016Z" fill="url(#paint15_linear)"/>
        <path fill-rule="evenodd" clip-rule="evenodd" d="M21.6087 35.6016C21.6087 36.7988 20.6455 37.7661 19.4528 37.7661C18.2602 37.7661 17.2969 36.7988 17.2969 35.6016C17.2969 34.4075 18.2602 33.4371 19.4528 33.4371C20.6455 33.4371 21.6087 34.4075 21.6087 35.6016Z" fill="url(#paint16_linear)"/>
        <path fill-rule="evenodd" clip-rule="evenodd" d="M29.162 35.6016C29.162 36.9981 28.0459 38.1263 26.6545 38.1263C25.2631 38.1263 24.1316 36.9981 24.1316 35.6016C24.1316 34.2113 25.2631 33.0784 26.6545 33.0784C28.0306 33.0784 29.162 34.2113 29.162 35.6016Z" fill="url(#paint17_linear)"/>
        <path fill-rule="evenodd" clip-rule="evenodd" d="M36.7153 35.6062C36.7153 37.1958 35.4309 38.4866 33.8407 38.4866C32.2506 38.4866 30.9662 37.1958 30.9662 35.6062C30.9662 34.0104 32.2506 32.7182 33.8407 32.7182C35.4309 32.7182 36.7153 34.0104 36.7153 35.6062Z" fill="url(#paint18_linear)"/>
        <path fill-rule="evenodd" clip-rule="evenodd" d="M44.2685 35.6062C44.2685 37.3936 42.816 38.8468 41.0271 38.8468C39.2381 38.8468 37.8008 37.3936 37.8008 35.6062C37.8008 33.8112 39.2381 32.3595 41.0271 32.3595C42.816 32.3595 44.2685 33.8112 44.2685 35.6062Z" fill="url(#paint19_linear)"/>
        <path fill-rule="evenodd" clip-rule="evenodd" d="M14.0554 64.4404C14.0707 65.4353 13.2604 66.2416 12.2665 66.2416C11.2727 66.2416 10.4623 65.4353 10.4623 64.4404C10.4623 63.4425 11.2727 62.6377 12.2665 62.6377C13.2604 62.6377 14.0707 63.4425 14.0554 64.4404Z" fill="url(#paint20_linear)"/>
        <path fill-rule="evenodd" clip-rule="evenodd" d="M21.6087 64.4403C21.6087 65.633 20.6455 66.6002 19.4528 66.6002C18.2602 66.6002 17.2969 65.633 17.2969 64.4403C17.2969 63.2462 18.2602 62.2774 19.4528 62.2774C20.6455 62.2774 21.6087 63.2462 21.6087 64.4403Z" fill="url(#paint21_linear)"/>
        <path fill-rule="evenodd" clip-rule="evenodd" d="M6.51744 64.4404C6.51744 65.236 5.87521 65.8813 5.08013 65.8813C4.28505 65.8813 3.64288 65.236 3.64288 64.4404C3.64288 63.6433 4.28505 62.9964 5.08013 62.9964C5.87521 62.9964 6.51744 63.6433 6.51744 64.4404Z" fill="url(#paint22_linear)"/>
        <path fill-rule="evenodd" clip-rule="evenodd" d="M6.51744 78.859C6.51744 79.6531 5.87521 80.3 5.08013 80.3C4.28505 80.3 3.64288 79.6531 3.64288 78.859C3.64288 78.0604 4.28505 77.4166 5.08013 77.4166C5.87521 77.4166 6.51744 78.0604 6.51744 78.859Z" fill="url(#paint23_linear)"/>
        <path fill-rule="evenodd" clip-rule="evenodd" d="M14.0707 71.6497C14.0707 72.6461 13.2604 73.4509 12.2665 73.4509C11.2727 73.4509 10.4776 72.6461 10.4623 71.6497C10.4623 70.6533 11.2727 69.8454 12.2665 69.8454C13.2604 69.8454 14.0707 70.6533 14.0707 71.6497Z" fill="url(#paint24_linear)"/>
        <path fill-rule="evenodd" clip-rule="evenodd" d="M6.51744 71.6497C6.51744 72.4453 5.87521 73.0906 5.08013 73.0906C4.28505 73.0906 3.64288 72.4453 3.64288 71.6497C3.64288 70.8541 4.28505 70.2072 5.08013 70.2072C5.87521 70.2072 6.51744 70.8541 6.51744 71.6497Z" fill="url(#paint25_linear)"/>
        <path fill-rule="evenodd" clip-rule="evenodd" d="M21.6087 28.3938C21.6087 29.5865 20.6455 30.5553 19.4528 30.5553C18.2602 30.5553 17.2969 29.5865 17.2969 28.3938C17.2969 27.1997 18.2602 26.2309 19.4528 26.2309C20.6455 26.2309 21.6087 27.1997 21.6087 28.3938Z" fill="url(#paint26_linear)"/>
        <path fill-rule="evenodd" clip-rule="evenodd" d="M29.162 28.3938C29.162 29.7857 28.0459 30.917 26.6545 30.917C25.2631 30.917 24.1316 29.7857 24.1316 28.3938C24.1316 27.0019 25.2631 25.8691 26.6545 25.8691C28.0459 25.8691 29.162 27.0019 29.162 28.3938Z" fill="url(#paint27_linear)"/>
        <path fill-rule="evenodd" clip-rule="evenodd" d="M36.7153 28.3938C36.7153 29.9865 35.4309 31.2772 33.8407 31.2772C32.2506 31.2772 30.9662 29.9865 30.9662 28.3938C30.9662 26.8011 32.2506 25.5119 33.8407 25.5119C35.4309 25.5119 36.7153 26.8011 36.7153 28.3938Z" fill="url(#paint28_linear)"/>
        <path fill-rule="evenodd" clip-rule="evenodd" d="M44.2685 28.3938C44.2685 30.1874 42.816 31.6375 41.0271 31.6375C39.2381 31.6375 37.8008 30.1874 37.8008 28.3938C37.8008 26.6034 39.2381 25.1487 41.0271 25.1487C42.816 25.1487 44.2685 26.6034 44.2685 28.3938Z" fill="url(#paint29_linear)"/>
        <path fill-rule="evenodd" clip-rule="evenodd" d="M29.162 21.1861C29.162 22.5795 28.0459 23.7062 26.6545 23.7062C25.2631 23.7062 24.1316 22.5795 24.1316 21.1861C24.1316 19.7926 25.2631 18.6613 26.6545 18.6613C28.0459 18.6613 29.162 19.7926 29.162 21.1861Z" fill="url(#paint30_linear)"/>
        <path fill-rule="evenodd" clip-rule="evenodd" d="M36.7153 21.1861C36.7153 22.7772 35.4309 24.0695 33.8407 24.0695C32.2506 24.0695 30.9662 22.7772 30.9662 21.1861C30.9662 19.5934 32.2506 18.3011 33.8407 18.3011C35.4309 18.3011 36.7153 19.5934 36.7153 21.1861Z" fill="url(#paint31_linear)"/>
        <path fill-rule="evenodd" clip-rule="evenodd" d="M44.2685 21.1861C44.2685 22.978 42.816 24.4313 41.0271 24.4313C39.2381 24.4313 37.8008 22.978 37.8008 21.1861C37.8008 19.3941 39.2381 17.9409 41.0271 17.9409C42.816 17.9409 44.2685 19.3941 44.2685 21.1861Z" fill="url(#paint32_linear)"/>
        <path fill-rule="evenodd" clip-rule="evenodd" d="M36.7153 13.9752C36.7153 15.5679 35.4309 16.8586 33.8407 16.8586C32.2506 16.8586 30.9662 15.5679 30.9662 13.9752C30.9662 12.3825 32.2506 11.0903 33.8407 11.0903C35.4309 11.0903 36.7153 12.3825 36.7153 13.9752Z" fill="url(#paint33_linear)"/>
        <path fill-rule="evenodd" clip-rule="evenodd" d="M44.2686 13.9752C44.2686 15.7672 42.8161 17.2204 41.0271 17.2204C39.2382 17.2204 37.8009 15.7672 37.7856 13.9752C37.8009 12.1848 39.2382 10.73 41.0271 10.73C42.8161 10.73 44.2686 12.1848 44.2686 13.9752Z" fill="url(#paint34_linear)"/>
        <path fill-rule="evenodd" clip-rule="evenodd" d="M44.2685 6.73833C44.2685 8.52878 42.816 9.98351 41.0271 9.98351C39.2381 9.98351 37.8008 8.52878 37.8008 6.73833C37.8008 4.94635 39.2381 3.49467 41.0271 3.49467C42.816 3.49467 44.2685 4.94635 44.2685 6.73833Z" fill="url(#paint35_linear)"/>
        <path d="M54.9258 71.8858H55.2927C56.4548 71.8858 57.1582 72.105 57.1582 73.3405C57.1582 74.6312 56.2713 74.7953 55.2927 74.7953H54.9258V71.8858ZM53.1368 80.3551H55.782C57.2193 80.3551 59.4364 80.1911 59.4364 77.7599C59.4364 76.0308 58.2743 75.5234 57.2958 75.318V75.2904C58.0297 75.0834 58.9624 74.4657 58.9624 73.1213C58.9624 71.2404 57.3569 70.8832 55.782 70.8832H53.1368V80.3551ZM54.9258 75.7978H55.2927C56.837 75.7978 57.6322 76.2653 57.6322 77.5545C57.6322 79.0782 56.4701 79.2162 55.2927 79.2162H54.9258V75.7978Z" fill="url(#paint36_linear)"/>
        <path d="M64.2068 72.4759H64.2374L65.5064 76.6623H62.9071L64.2068 72.4759ZM60.1549 80.3551H61.7451L62.6013 77.6649H65.8122L66.6379 80.3551H68.5339L65.2465 70.8832H63.4117L60.1549 80.3551Z" fill="url(#paint37_linear)"/>
        <path d="M69.6807 70.8832H71.6378L75.2921 77.9117H75.3227V70.8832H76.7906V80.3551H75.0169L71.1791 72.9833H71.1485V80.3551H69.6807V70.8832Z" fill="url(#paint38_linear)"/>
        <path d="M78.9464 70.8832H80.7506V75.0022H80.7812L83.8086 70.8832H85.7046L82.3255 75.1524L86.0562 80.3551H83.8698L80.7812 75.7702H80.7506V80.3551H78.9464V70.8832Z" fill="url(#paint39_linear)"/>
        <path d="M87.1877 70.8832H92.7075V71.9686H88.992V74.878H92.524V75.9618H88.992V79.2162H92.8297V80.3551H87.1877V70.8832Z" fill="url(#paint40_linear)"/>
        <path d="M94.4506 70.8832H96.4078L100.062 77.9117H100.093V70.8832H101.561V80.3551H99.7715L95.9338 72.9833H95.9185V80.3551H94.4506V70.8832Z" fill="url(#paint41_linear)"/>
        <path d="M110.597 79.6286C109.878 80.0532 108.839 80.5054 107.539 80.5054C104.573 80.5054 103.334 78.3102 103.334 75.5372C103.334 72.7503 104.221 70.733 107.141 70.733C109.19 70.733 110.505 71.5562 110.505 73.3681H108.563C108.518 72.8055 108.456 71.639 107.141 71.639C105.215 71.639 105.215 74.1239 105.215 75.3854C105.215 77.6649 105.643 79.5994 107.692 79.5994C108.227 79.5994 108.64 79.4078 108.793 79.2162V75.922H107.096V74.783H110.597V79.6286Z" fill="url(#paint42_linear)"/>
        <path d="M114.267 71.8858H114.633C115.734 71.8858 116.805 71.9823 116.805 73.4923C116.805 74.878 115.903 75.2076 114.633 75.2076H114.267V71.8858ZM112.478 80.3551H114.267V76.2086H114.832C116.239 76.2086 116.499 76.8402 116.85 78.5708L117.187 80.3551H118.976L118.441 77.8427C118.211 76.7451 118.028 75.8392 116.621 75.5786V75.551C117.477 75.3318 118.594 74.8228 118.594 73.3543C118.594 71.199 116.728 70.8832 114.633 70.8832H112.478V80.3551Z" fill="url(#paint43_linear)"/>
        <path d="M127.202 77.1299C127.202 78.8176 126.85 80.5053 123.777 80.5053C120.734 80.5053 120.383 78.8176 120.383 77.1299V70.8832H122.171V77.1299C122.171 78.6122 122.401 79.5994 123.777 79.5994C125.229 79.5994 125.413 78.6122 125.413 77.1299V70.8832H127.202V77.1299Z" fill="url(#paint44_linear)"/>
        <path d="M131.04 71.8858H131.498C132.767 71.8858 133.456 72.174 133.456 73.4923C133.456 75.0145 132.523 75.2352 131.498 75.2352H131.04V71.8858ZM129.251 80.3551H131.04V76.2377H131.498C132.982 76.2377 135.244 76.017 135.244 73.5061C135.244 71.3232 133.685 70.8832 131.498 70.8832H129.251V80.3551Z" fill="url(#paint45_linear)"/>
        <path d="M138.287 71.8858H138.731C140 71.8858 140.688 72.174 140.688 73.4923C140.688 75.0145 139.755 75.2352 138.731 75.2352H138.287V71.8858ZM136.483 80.3551H138.287V76.2377H138.731C140.229 76.2377 142.492 76.017 142.492 73.5061C142.492 71.3232 140.917 70.8832 138.731 70.8832H136.483V80.3551Z" fill="url(#paint46_linear)"/>
        <path d="M143.715 70.8832H149.235V71.9686H145.504V74.878H149.036V75.9618H145.504V79.2162H149.357V80.3551H143.715V70.8832Z" fill="url(#paint47_linear)"/>
        <path fill-rule="evenodd" clip-rule="evenodd" d="M99.0987 42.3801C99.0987 44.33 97.5239 45.9043 95.582 45.9043C93.6401 45.9043 92.0653 44.33 92.0653 42.3801C92.0653 40.4349 93.6401 38.8529 95.582 38.8529C97.5239 38.8529 99.0987 40.4349 99.0987 42.3801Z" fill="url(#paint48_linear)"/>
        <path d="M147.996 39.5826C147.278 39.5826 145.412 39.5826 143.883 39.5826C142.033 39.5826 142.018 39.5826 141.039 41.9647L135.795 55.6874H135.78L130.749 42.6546C130.107 41.0941 129.266 39.8693 128.67 39.6838C128.471 39.6148 127.844 39.5795 127.523 39.5795C126.804 39.5795 124.572 39.5811 124.419 39.5826C124.388 39.5826 123.563 39.5995 123.41 39.6286C122.63 39.7558 121.789 40.9101 121.071 42.6469L116.086 55.6828H116.071L110.811 41.9617C109.832 39.5795 109.817 39.5795 107.982 39.5795C106.453 39.5795 104.573 39.5795 103.854 39.5795C102.386 39.5795 102.249 40.3276 102.875 41.9632C103.885 44.6213 110.536 60.7507 111.835 64.215C112.63 66.3151 113.211 66.5972 115.994 66.5972H116.04C118.823 66.5972 119.48 66.2921 120.275 64.1936C121.055 62.1303 123.609 57.0839 125.933 50.8971C128.242 57.0854 130.703 62.1303 131.483 64.1936C132.278 66.2921 132.92 66.6003 135.703 66.6003H135.749C138.532 66.6003 139.189 66.2921 139.984 64.1936C141.299 60.7292 147.981 44.6244 148.99 41.9663C149.602 40.3307 149.479 39.5826 147.996 39.5826Z" fill="url(#paint49_linear)"/>
        <path d="M99.5269 25.2452L91.4997 25.2498C86.3011 25.2498 82.5703 27.6028 82.5703 34.9746V63.8379C82.5703 66.217 83.4113 66.6002 86.8362 66.6002C90.2153 66.6002 91.0869 66.217 91.0869 63.8379V36.6808C91.0869 33.5383 92.6005 33.5674 95.1082 33.5674H99.5269C101.912 33.5674 102.295 32.5894 102.295 29.1894C102.295 25.7557 101.912 25.2452 99.5269 25.2452Z" fill="url(#paint50_linear)"/>
        <path d="M78.7783 64.2181C76.6988 61.9724 73.9008 58.1324 67.6319 50.7683C67.6319 50.7683 72.9528 45.7541 77.0964 42.2192C78.4419 41.0772 78.289 39.5673 76.3319 39.5673C75.3839 39.5673 73.2892 39.5673 71.2556 39.5673C68.8092 39.5673 68.6104 40.3169 67.4025 41.2151L61.2712 46.565L61.3018 28.0137C61.3018 25.6331 60.4761 25.2498 57.0511 25.2498C53.6567 25.2498 52.7852 25.6331 52.7852 28.0137V63.8379C52.7852 66.217 53.6108 66.6003 57.0511 66.6003C60.4302 66.6003 61.3018 66.217 61.3018 63.8379L61.2865 55.2199L68.3352 64.2212C70.1394 66.6003 70.3535 66.6003 72.2036 66.6003C73.7326 66.6003 76.4542 66.6003 77.1729 66.6003C78.8395 66.6003 80.292 65.8614 78.7783 64.2181Z" fill="url(#paint51_linear)"/>
    </g>
    <defs>
        <linearGradient id="paint0_linear" x1="12.274" y1="55.4253" x2="12.274" y2="59.0322" gradientUnits="userSpaceOnUse">
            <stop stop-color="#25E57E"/>
            <stop offset="1" stop-color="#25E57E" stop-opacity="0.19"/>
        </linearGradient>
        <linearGradient id="paint1_linear" x1="19.4528" y1="55.0666" x2="19.4528" y2="59.394" gradientUnits="userSpaceOnUse">
            <stop stop-color="#25E57E"/>
            <stop offset="1" stop-color="#25E57E" stop-opacity="0.19"/>
        </linearGradient>
        <linearGradient id="paint2_linear" x1="26.6468" y1="54.7079" x2="26.6468" y2="59.7543" gradientUnits="userSpaceOnUse">
            <stop stop-color="#25E57E"/>
            <stop offset="1" stop-color="#25E57E" stop-opacity="0.19"/>
        </linearGradient>
        <linearGradient id="paint3_linear" x1="5.08016" y1="55.7886" x2="5.08016" y2="58.672" gradientUnits="userSpaceOnUse">
            <stop stop-color="#25E57E"/>
            <stop offset="1" stop-color="#25E57E" stop-opacity="0.19"/>
        </linearGradient>
        <linearGradient id="paint4_linear" x1="12.2665" y1="48.2191" x2="12.2665" y2="51.8229" gradientUnits="userSpaceOnUse">
            <stop stop-color="#25E57E"/>
            <stop offset="1" stop-color="#25E57E" stop-opacity="0.19"/>
        </linearGradient>
        <linearGradient id="paint5_linear" x1="19.4528" y1="47.8588" x2="19.4528" y2="52.1847" gradientUnits="userSpaceOnUse">
            <stop stop-color="#25E57E"/>
            <stop offset="1" stop-color="#25E57E" stop-opacity="0.19"/>
        </linearGradient>
        <linearGradient id="paint6_linear" x1="26.6468" y1="47.5001" x2="26.6468" y2="52.5449" gradientUnits="userSpaceOnUse">
            <stop stop-color="#25E57E"/>
            <stop offset="1" stop-color="#25E57E" stop-opacity="0.19"/>
        </linearGradient>
        <linearGradient id="paint7_linear" x1="33.8408" y1="47.1368" x2="33.8408" y2="52.9052" gradientUnits="userSpaceOnUse">
            <stop stop-color="#25E57E"/>
            <stop offset="1" stop-color="#25E57E" stop-opacity="0.19"/>
        </linearGradient>
        <linearGradient id="paint8_linear" x1="5.08016" y1="48.5777" x2="5.08016" y2="51.4627" gradientUnits="userSpaceOnUse">
            <stop stop-color="#25E57E"/>
            <stop offset="1" stop-color="#25E57E" stop-opacity="0.19"/>
        </linearGradient>
        <linearGradient id="paint9_linear" x1="12.2665" y1="41.0097" x2="12.2665" y2="44.6151" gradientUnits="userSpaceOnUse">
            <stop stop-color="#25E57E"/>
            <stop offset="1" stop-color="#25E57E" stop-opacity="0.19"/>
        </linearGradient>
        <linearGradient id="paint10_linear" x1="19.4528" y1="40.6479" x2="19.4528" y2="44.9738" gradientUnits="userSpaceOnUse">
            <stop stop-color="#25E57E"/>
            <stop offset="1" stop-color="#25E57E" stop-opacity="0.19"/>
        </linearGradient>
        <linearGradient id="paint11_linear" x1="26.6468" y1="40.2893" x2="26.6468" y2="45.3356" gradientUnits="userSpaceOnUse">
            <stop stop-color="#25E57E"/>
            <stop offset="1" stop-color="#25E57E" stop-opacity="0.19"/>
        </linearGradient>
        <linearGradient id="paint12_linear" x1="33.8408" y1="39.9275" x2="33.8408" y2="45.6959" gradientUnits="userSpaceOnUse">
            <stop stop-color="#25E57E"/>
            <stop offset="1" stop-color="#25E57E" stop-opacity="0.19"/>
        </linearGradient>
        <linearGradient id="paint13_linear" x1="41.0347" y1="39.5673" x2="41.0347" y2="46.0546" gradientUnits="userSpaceOnUse">
            <stop stop-color="#25E57E"/>
            <stop offset="1" stop-color="#25E57E" stop-opacity="0.19"/>
        </linearGradient>
        <linearGradient id="paint14_linear" x1="5.08016" y1="41.37" x2="5.08016" y2="44.2534" gradientUnits="userSpaceOnUse">
            <stop stop-color="#25E57E"/>
            <stop offset="1" stop-color="#25E57E" stop-opacity="0.19"/>
        </linearGradient>
        <linearGradient id="paint15_linear" x1="12.274" y1="33.7989" x2="12.274" y2="37.4043" gradientUnits="userSpaceOnUse">
            <stop stop-color="#25E57E"/>
            <stop offset="1" stop-color="#25E57E" stop-opacity="0.19"/>
        </linearGradient>
        <linearGradient id="paint16_linear" x1="19.4528" y1="33.4371" x2="19.4528" y2="37.7661" gradientUnits="userSpaceOnUse">
            <stop stop-color="#25E57E"/>
            <stop offset="1" stop-color="#25E57E" stop-opacity="0.19"/>
        </linearGradient>
        <linearGradient id="paint17_linear" x1="26.6468" y1="33.0784" x2="26.6468" y2="38.1263" gradientUnits="userSpaceOnUse">
            <stop stop-color="#25E57E"/>
            <stop offset="1" stop-color="#25E57E" stop-opacity="0.19"/>
        </linearGradient>
        <linearGradient id="paint18_linear" x1="33.8408" y1="32.7182" x2="33.8408" y2="38.4866" gradientUnits="userSpaceOnUse">
            <stop stop-color="#25E57E"/>
            <stop offset="1" stop-color="#25E57E" stop-opacity="0.19"/>
        </linearGradient>
        <linearGradient id="paint19_linear" x1="41.0347" y1="32.3595" x2="41.0347" y2="38.8468" gradientUnits="userSpaceOnUse">
            <stop stop-color="#25E57E"/>
            <stop offset="1" stop-color="#25E57E" stop-opacity="0.19"/>
        </linearGradient>
        <linearGradient id="paint20_linear" x1="12.259" y1="62.6377" x2="12.259" y2="66.2416" gradientUnits="userSpaceOnUse">
            <stop stop-color="#25E57E"/>
            <stop offset="1" stop-color="#25E57E" stop-opacity="0.19"/>
        </linearGradient>
        <linearGradient id="paint21_linear" x1="19.4528" y1="62.2774" x2="19.4528" y2="66.6002" gradientUnits="userSpaceOnUse">
            <stop stop-color="#25E57E"/>
            <stop offset="1" stop-color="#25E57E" stop-opacity="0.19"/>
        </linearGradient>
        <linearGradient id="paint22_linear" x1="5.08016" y1="62.9964" x2="5.08016" y2="65.8813" gradientUnits="userSpaceOnUse">
            <stop stop-color="#25E57E"/>
            <stop offset="1" stop-color="#25E57E" stop-opacity="0.19"/>
        </linearGradient>
        <linearGradient id="paint23_linear" x1="5.08016" y1="77.4166" x2="5.08016" y2="80.3" gradientUnits="userSpaceOnUse">
            <stop stop-color="#25E57E"/>
            <stop offset="1" stop-color="#25E57E" stop-opacity="0.19"/>
        </linearGradient>
        <linearGradient id="paint24_linear" x1="12.2665" y1="69.8454" x2="12.2665" y2="73.4509" gradientUnits="userSpaceOnUse">
            <stop stop-color="#25E57E"/>
            <stop offset="1" stop-color="#25E57E" stop-opacity="0.19"/>
        </linearGradient>
        <linearGradient id="paint25_linear" x1="5.08016" y1="70.2072" x2="5.08016" y2="73.0906" gradientUnits="userSpaceOnUse">
            <stop stop-color="#25E57E"/>
            <stop offset="1" stop-color="#25E57E" stop-opacity="0.19"/>
        </linearGradient>
        <linearGradient id="paint26_linear" x1="19.4528" y1="26.2309" x2="19.4528" y2="30.5553" gradientUnits="userSpaceOnUse">
            <stop stop-color="#25E57E"/>
            <stop offset="1" stop-color="#25E57E" stop-opacity="0.19"/>
        </linearGradient>
        <linearGradient id="paint27_linear" x1="26.6468" y1="25.8691" x2="26.6468" y2="30.917" gradientUnits="userSpaceOnUse">
            <stop stop-color="#25E57E"/>
            <stop offset="1" stop-color="#25E57E" stop-opacity="0.19"/>
        </linearGradient>
        <linearGradient id="paint28_linear" x1="33.8408" y1="25.5119" x2="33.8408" y2="31.2772" gradientUnits="userSpaceOnUse">
            <stop stop-color="#25E57E"/>
            <stop offset="1" stop-color="#25E57E" stop-opacity="0.19"/>
        </linearGradient>
        <linearGradient id="paint29_linear" x1="41.0347" y1="25.1487" x2="41.0347" y2="31.6375" gradientUnits="userSpaceOnUse">
            <stop stop-color="#25E57E"/>
            <stop offset="1" stop-color="#25E57E" stop-opacity="0.19"/>
        </linearGradient>
        <linearGradient id="paint30_linear" x1="26.6468" y1="18.6613" x2="26.6468" y2="23.7062" gradientUnits="userSpaceOnUse">
            <stop stop-color="#25E57E"/>
            <stop offset="1" stop-color="#25E57E" stop-opacity="0.19"/>
        </linearGradient>
        <linearGradient id="paint31_linear" x1="33.8408" y1="18.3011" x2="33.8408" y2="24.0695" gradientUnits="userSpaceOnUse">
            <stop stop-color="#25E57E"/>
            <stop offset="1" stop-color="#25E57E" stop-opacity="0.19"/>
        </linearGradient>
        <linearGradient id="paint32_linear" x1="41.0347" y1="17.9409" x2="41.0347" y2="24.4313" gradientUnits="userSpaceOnUse">
            <stop stop-color="#25E57E"/>
            <stop offset="1" stop-color="#25E57E" stop-opacity="0.19"/>
        </linearGradient>
        <linearGradient id="paint33_linear" x1="33.8408" y1="11.0903" x2="33.8408" y2="16.8586" gradientUnits="userSpaceOnUse">
            <stop stop-color="#25E57E"/>
            <stop offset="1" stop-color="#25E57E" stop-opacity="0.19"/>
        </linearGradient>
        <linearGradient id="paint34_linear" x1="41.0271" y1="10.73" x2="41.0271" y2="17.2204" gradientUnits="userSpaceOnUse">
            <stop stop-color="#25E57E"/>
            <stop offset="1" stop-color="#25E57E" stop-opacity="0.19"/>
        </linearGradient>
        <linearGradient id="paint35_linear" x1="41.0347" y1="3.49467" x2="41.0347" y2="9.98351" gradientUnits="userSpaceOnUse">
            <stop stop-color="#25E57E"/>
            <stop offset="1" stop-color="#25E57E" stop-opacity="0.19"/>
        </linearGradient>
        <linearGradient id="paint36_linear" x1="56.2866" y1="70.8832" x2="56.2866" y2="80.3551" gradientUnits="userSpaceOnUse">
            <stop stop-color="#25E57E"/>
            <stop offset="1" stop-color="#25E57E" stop-opacity="0.19"/>
        </linearGradient>
        <linearGradient id="paint37_linear" x1="64.3444" y1="70.8832" x2="64.3444" y2="80.3551" gradientUnits="userSpaceOnUse">
            <stop stop-color="#25E57E"/>
            <stop offset="1" stop-color="#25E57E" stop-opacity="0.19"/>
        </linearGradient>
        <linearGradient id="paint38_linear" x1="73.2356" y1="70.8832" x2="73.2356" y2="80.3551" gradientUnits="userSpaceOnUse">
            <stop stop-color="#25E57E"/>
            <stop offset="1" stop-color="#25E57E" stop-opacity="0.19"/>
        </linearGradient>
        <linearGradient id="paint39_linear" x1="82.5013" y1="70.8832" x2="82.5013" y2="80.3551" gradientUnits="userSpaceOnUse">
            <stop stop-color="#25E57E"/>
            <stop offset="1" stop-color="#25E57E" stop-opacity="0.19"/>
        </linearGradient>
        <linearGradient id="paint40_linear" x1="90.0087" y1="70.8832" x2="90.0087" y2="80.3551" gradientUnits="userSpaceOnUse">
            <stop stop-color="#25E57E"/>
            <stop offset="1" stop-color="#25E57E" stop-opacity="0.19"/>
        </linearGradient>
        <linearGradient id="paint41_linear" x1="98.0055" y1="70.8832" x2="98.0055" y2="80.3551" gradientUnits="userSpaceOnUse">
            <stop stop-color="#25E57E"/>
            <stop offset="1" stop-color="#25E57E" stop-opacity="0.19"/>
        </linearGradient>
        <linearGradient id="paint42_linear" x1="106.966" y1="70.733" x2="106.966" y2="80.5054" gradientUnits="userSpaceOnUse">
            <stop stop-color="#25E57E"/>
            <stop offset="1" stop-color="#25E57E" stop-opacity="0.19"/>
        </linearGradient>
        <linearGradient id="paint43_linear" x1="115.727" y1="70.8832" x2="115.727" y2="80.3551" gradientUnits="userSpaceOnUse">
            <stop stop-color="#25E57E"/>
            <stop offset="1" stop-color="#25E57E" stop-opacity="0.19"/>
        </linearGradient>
        <linearGradient id="paint44_linear" x1="123.792" y1="70.8832" x2="123.792" y2="80.5053" gradientUnits="userSpaceOnUse">
            <stop stop-color="#25E57E"/>
            <stop offset="1" stop-color="#25E57E" stop-opacity="0.19"/>
        </linearGradient>
        <linearGradient id="paint45_linear" x1="132.248" y1="70.8832" x2="132.248" y2="80.3551" gradientUnits="userSpaceOnUse">
            <stop stop-color="#25E57E"/>
            <stop offset="1" stop-color="#25E57E" stop-opacity="0.19"/>
        </linearGradient>
        <linearGradient id="paint46_linear" x1="139.487" y1="70.8832" x2="139.487" y2="80.3551" gradientUnits="userSpaceOnUse">
            <stop stop-color="#25E57E"/>
            <stop offset="1" stop-color="#25E57E" stop-opacity="0.19"/>
        </linearGradient>
        <linearGradient id="paint47_linear" x1="146.536" y1="70.8832" x2="146.536" y2="80.3551" gradientUnits="userSpaceOnUse">
            <stop stop-color="#25E57E"/>
            <stop offset="1" stop-color="#25E57E" stop-opacity="0.19"/>
        </linearGradient>
        <linearGradient id="paint48_linear" x1="95.582" y1="38.8529" x2="95.582" y2="45.9043" gradientUnits="userSpaceOnUse">
            <stop stop-color="#25E57E"/>
            <stop offset="1" stop-color="#25E57E" stop-opacity="0.19"/>
        </linearGradient>
        <linearGradient id="paint49_linear" x1="125.929" y1="39.5795" x2="125.929" y2="66.6003" gradientUnits="userSpaceOnUse">
            <stop stop-color="#25E57E"/>
            <stop offset="1" stop-color="#25E57E" stop-opacity="0.19"/>
        </linearGradient>
        <linearGradient id="paint50_linear" x1="92.4324" y1="25.2452" x2="92.4324" y2="66.6002" gradientUnits="userSpaceOnUse">
            <stop stop-color="#25E57E"/>
            <stop offset="1" stop-color="#25E57E" stop-opacity="0.19"/>
        </linearGradient>
        <linearGradient id="paint51_linear" x1="66.0997" y1="25.2498" x2="66.0997" y2="66.6003" gradientUnits="userSpaceOnUse">
            <stop stop-color="#25E57E"/>
            <stop offset="1" stop-color="#25E57E" stop-opacity="0.19"/>
        </linearGradient>
    </defs>
</svg>
