<svg width="193" height="89" viewBox="0 0 193 89" fill="none" xmlns="http://www.w3.org/2000/svg">
    <g opacity="0.6">
        <g clip-path="url(#clip0)">
            <path d="M62.9312 0H26.0668L0 26.0591V62.9207L26.0668 89H62.9312L89 62.9207V26.0591L62.9312 0Z" fill="url(#paint0_linear)"/>
            <path d="M72.6042 56.1288L56.1419 72.5947H32.8581L16.3938 56.1288L16.3958 32.851L32.8581 16.3852H56.1419L72.6042 32.851V56.1288Z" fill="url(#paint1_linear)"/>
            <path fill-rule="evenodd" clip-rule="evenodd" d="M43.5024 32.7905H45.7897V36.4384H43.5024V32.7905Z" fill="#05041E"/>
            <path d="M21.317 53.8716H67.669V52.7833H21.317V53.8716Z" fill="#05041E"/>
            <path fill-rule="evenodd" clip-rule="evenodd" d="M21.5387 32.7905V35.7532H26.8024V51.0299H30.5931V35.7532H35.2321V45.0038C35.3873 49.478 38.6136 51.4531 43.0632 51.4531C47.5128 51.4531 50.7392 49.478 50.8641 45.0038V35.3098L56.7244 51.0299H60.7024L67.5662 32.7905H63.5539L58.7597 47.0797L54.028 32.7905H47.1057V44.8829C46.8236 47.3215 45.6004 48.2083 43.0632 48.3494C40.5261 48.2083 39.2726 47.3215 39.0207 44.8829V32.7905H21.5387Z" fill="#05041E"/>
            <path fill-rule="evenodd" clip-rule="evenodd" d="M40.3688 32.7905H42.5613V36.4384H40.3688V32.7905Z" fill="#05041E"/>
            <path d="M33.9806 64.8757L35.4779 64.6943C35.6492 65.8632 36.2054 66.4477 37.1485 66.4477C37.616 66.4477 37.9848 66.3268 38.2528 66.0849C38.5209 65.8431 38.6539 65.5609 38.6539 65.1981C38.6539 64.9966 38.6075 64.8152 38.5148 64.6741C38.4201 64.5129 38.277 64.392 38.0876 64.2912C37.8962 64.2106 37.4306 64.0494 36.6951 63.8277C36.0341 63.6261 35.5504 63.4045 35.2421 63.1626C34.9358 62.9409 34.692 62.6386 34.5106 62.2355C34.3292 61.8727 34.2385 61.4495 34.2385 61.0263C34.2385 60.5023 34.3554 60.0387 34.5872 59.6356C34.8209 59.2326 35.1414 58.9101 35.5525 58.7086C35.9615 58.507 36.4674 58.4062 37.0699 58.4062C37.9747 58.4062 38.6821 58.6481 39.1899 59.1318C39.6978 59.6155 39.9678 60.3209 39.998 61.2278L38.4483 61.3084C38.3798 60.8247 38.2327 60.462 38.007 60.2604C37.7813 60.079 37.4589 59.9783 37.0417 59.9783C36.6225 59.9783 36.3021 60.0589 36.0764 60.2201C35.8507 60.4015 35.7358 60.6232 35.7358 60.865C35.7358 61.127 35.8366 61.3286 36.0381 61.51C36.2396 61.6914 36.7072 61.8727 37.4427 62.0944C38.2226 62.3161 38.7849 62.558 39.1315 62.7998C39.4801 63.0618 39.7461 63.3843 39.9275 63.7672C40.1109 64.1703 40.2036 64.6338 40.2036 65.1981C40.2036 66.0245 39.9537 66.6896 39.4559 67.2539C38.9562 67.798 38.1763 68.0802 37.1143 68.0802C35.2381 68.0802 34.1922 67.012 33.9806 64.8757Z" fill="#05041E"/>
            <path d="M40.6913 58.5473H42.4727V63.6261C42.4727 64.4121 42.4949 64.916 42.5392 65.1578C42.6178 65.581 42.8073 65.8834 43.1055 66.1252C43.4038 66.3469 43.7987 66.4477 44.2884 66.4477C44.7016 66.4477 45.0401 66.367 45.3021 66.2058C45.5641 66.0647 45.7434 65.843 45.8402 65.5407C45.9349 65.2586 45.9832 64.654 45.9832 63.7269V58.5473H47.7647V63.4649C47.7647 64.7346 47.6881 65.6415 47.5329 66.2058C47.3778 66.7701 47.0291 67.2135 46.485 67.5561C45.9409 67.8987 45.2255 68.0801 44.3348 68.0801C43.4098 68.0801 42.6884 67.939 42.1704 67.6569C41.6505 67.3546 41.2757 66.9515 41.0419 66.4275C40.8082 65.9237 40.6913 64.9563 40.6913 63.5455V58.5473Z" fill="#05041E"/>
            <path d="M50.6948 60.1193C51.3155 60.1193 51.7326 60.1596 51.9503 60.2201C52.2384 60.2805 52.4843 60.4418 52.6858 60.6635C52.8873 60.9053 53.0365 61.2076 53.1312 61.6107C53.2259 62.0138 53.2743 62.558 53.2743 63.2633C53.2743 63.9284 53.2279 64.4726 53.1352 64.8757C53.0405 65.2989 52.9236 65.6012 52.7805 65.7826C52.6395 65.964 52.4561 66.1252 52.2324 66.2058C52.0107 66.3066 51.65 66.3469 51.1543 66.3469H49.9955V60.1193H50.6948ZM48.4458 67.9189H51.3538C51.9785 67.9189 52.4903 67.8383 52.8873 67.6569C53.2863 67.4755 53.6249 67.2135 53.905 66.8709C54.1851 66.5283 54.4169 66.0446 54.6003 65.44C54.7836 64.8555 54.8743 64.1501 54.8743 63.3238C54.8743 62.437 54.7877 61.6913 54.6144 61.0867C54.4391 60.4821 54.1992 59.9782 53.8929 59.5953C53.5866 59.2124 53.2521 58.9504 52.8873 58.7892C52.5246 58.6279 51.9865 58.5473 51.2711 58.5473H48.4458V67.9189Z" fill="#05041E"/>
            <path fill-rule="evenodd" clip-rule="evenodd" d="M43.1256 58.5473H43.9881V59.9984H43.1256V58.5473Z" fill="#05041E"/>
            <path fill-rule="evenodd" clip-rule="evenodd" d="M44.4697 58.5473H45.3322V59.9984H44.4697V58.5473Z" fill="#05041E"/>
        </g>
    </g>
    <g opacity="0.6">
        <g clip-path="url(#clip1)">
            <path d="M166.931 0H130.067L104 26.0591V62.9207L130.067 89H166.931L193 62.9207V26.0591L166.931 0Z" fill="url(#paint2_linear)"/>
            <path d="M176.604 56.1288L160.142 72.5947H136.858L120.394 56.1288L120.396 32.851L136.858 16.3852H160.142L176.604 32.851V56.1288Z" fill="url(#paint3_linear)"/>
            <path fill-rule="evenodd" clip-rule="evenodd" d="M147.502 32.7905H149.79V36.4384H147.502V32.7905Z" fill="#05041E"/>
            <path d="M125.317 53.8716H171.669V52.7833H125.317V53.8716Z" fill="#05041E"/>
            <path fill-rule="evenodd" clip-rule="evenodd" d="M125.539 32.7905V35.7532H130.802V51.0299H134.593V35.7532H139.232V45.0038C139.387 49.478 142.614 51.4531 147.063 51.4531C151.513 51.4531 154.739 49.478 154.864 45.0038V35.3098L160.724 51.0299H164.702L171.566 32.7905H167.554L162.76 47.0797L158.028 32.7905H151.106V44.8829C150.824 47.3215 149.6 48.2083 147.063 48.3494C144.526 48.2083 143.273 47.3215 143.021 44.8829V32.7905H125.539Z" fill="#05041E"/>
            <path fill-rule="evenodd" clip-rule="evenodd" d="M144.369 32.7905H146.561V36.4384H144.369V32.7905Z" fill="#05041E"/>
            <path d="M137.981 64.8757L139.478 64.6943C139.649 65.8632 140.205 66.4477 141.149 66.4477C141.616 66.4477 141.985 66.3268 142.253 66.0849C142.521 65.8431 142.654 65.5609 142.654 65.1981C142.654 64.9966 142.608 64.8152 142.515 64.6741C142.42 64.5129 142.277 64.392 142.088 64.2912C141.896 64.2106 141.431 64.0494 140.695 63.8277C140.034 63.6261 139.55 63.4045 139.242 63.1626C138.936 62.9409 138.692 62.6386 138.511 62.2355C138.329 61.8727 138.239 61.4495 138.239 61.0263C138.239 60.5023 138.355 60.0387 138.587 59.6356C138.821 59.2326 139.141 58.9101 139.552 58.7086C139.962 58.507 140.467 58.4062 141.07 58.4062C141.975 58.4062 142.682 58.6481 143.19 59.1318C143.698 59.6155 143.968 60.3209 143.998 61.2278L142.448 61.3084C142.38 60.8247 142.233 60.462 142.007 60.2604C141.781 60.079 141.459 59.9783 141.042 59.9783C140.623 59.9783 140.302 60.0589 140.076 60.2201C139.851 60.4015 139.736 60.6232 139.736 60.865C139.736 61.127 139.837 61.3286 140.038 61.51C140.24 61.6914 140.707 61.8727 141.443 62.0944C142.223 62.3161 142.785 62.558 143.131 62.7998C143.48 63.0618 143.746 63.3843 143.927 63.7672C144.111 64.1703 144.204 64.6338 144.204 65.1981C144.204 66.0245 143.954 66.6896 143.456 67.2539C142.956 67.798 142.176 68.0802 141.114 68.0802C139.238 68.0802 138.192 67.012 137.981 64.8757Z" fill="#05041E"/>
            <path d="M144.691 58.5473H146.473V63.6261C146.473 64.4121 146.495 64.916 146.539 65.1578C146.618 65.581 146.807 65.8834 147.106 66.1252C147.404 66.3469 147.799 66.4477 148.288 66.4477C148.702 66.4477 149.04 66.367 149.302 66.2058C149.564 66.0647 149.743 65.843 149.84 65.5407C149.935 65.2586 149.983 64.654 149.983 63.7269V58.5473H151.765V63.4649C151.765 64.7346 151.688 65.6415 151.533 66.2058C151.378 66.7701 151.029 67.2135 150.485 67.5561C149.941 67.8987 149.226 68.0801 148.335 68.0801C147.41 68.0801 146.688 67.939 146.17 67.6569C145.651 67.3546 145.276 66.9515 145.042 66.4275C144.808 65.9237 144.691 64.9563 144.691 63.5455V58.5473Z" fill="#05041E"/>
            <path d="M154.695 60.1193C155.315 60.1193 155.733 60.1596 155.95 60.2201C156.238 60.2805 156.484 60.4418 156.686 60.6635C156.887 60.9053 157.036 61.2076 157.131 61.6107C157.226 62.0138 157.274 62.558 157.274 63.2633C157.274 63.9284 157.228 64.4726 157.135 64.8757C157.04 65.2989 156.924 65.6012 156.781 65.7826C156.639 65.964 156.456 66.1252 156.232 66.2058C156.011 66.3066 155.65 66.3469 155.154 66.3469H153.995V60.1193H154.695ZM152.446 67.9189H155.354C155.978 67.9189 156.49 67.8383 156.887 67.6569C157.286 67.4755 157.625 67.2135 157.905 66.8709C158.185 66.5283 158.417 66.0446 158.6 65.44C158.784 64.8555 158.874 64.1501 158.874 63.3238C158.874 62.437 158.788 61.6913 158.614 61.0867C158.439 60.4821 158.199 59.9782 157.893 59.5953C157.587 59.2124 157.252 58.9504 156.887 58.7892C156.525 58.6279 155.987 58.5473 155.271 58.5473H152.446V67.9189Z" fill="#05041E"/>
            <path fill-rule="evenodd" clip-rule="evenodd" d="M147.126 58.5473H147.988V59.9984H147.126V58.5473Z" fill="#05041E"/>
            <path fill-rule="evenodd" clip-rule="evenodd" d="M148.47 58.5473H149.332V59.9984H148.47V58.5473Z" fill="#05041E"/>
        </g>
    </g>
    <defs>
        <linearGradient id="paint0_linear" x1="44.5" y1="0" x2="44.5" y2="89" gradientUnits="userSpaceOnUse">
            <stop stop-color="#25E57E"/>
            <stop offset="1" stop-color="#25E57E" stop-opacity="0.19"/>
        </linearGradient>
        <linearGradient id="paint1_linear" x1="44.499" y1="16.3852" x2="44.499" y2="72.5947" gradientUnits="userSpaceOnUse">
            <stop stop-color="#25E57E"/>
            <stop offset="1" stop-color="#25E57E" stop-opacity="0.19"/>
        </linearGradient>
        <linearGradient id="paint2_linear" x1="148.5" y1="0" x2="148.5" y2="89" gradientUnits="userSpaceOnUse">
            <stop stop-color="#25E57E"/>
            <stop offset="1" stop-color="#25E57E" stop-opacity="0.19"/>
        </linearGradient>
        <linearGradient id="paint3_linear" x1="148.499" y1="16.3852" x2="148.499" y2="72.5947" gradientUnits="userSpaceOnUse">
            <stop stop-color="#25E57E"/>
            <stop offset="1" stop-color="#25E57E" stop-opacity="0.19"/>
        </linearGradient>
        <clipPath id="clip0">
            <rect width="89" height="89" fill="white"/>
        </clipPath>
        <clipPath id="clip1">
            <rect x="104" width="89" height="89" fill="white"/>
        </clipPath>
    </defs>
</svg>
